<?xml version="1.0" encoding="UTF-8" standalone="no"?>
<!DOCTYPE svg PUBLIC "-//W3C//DTD SVG 1.1//EN"
 "http://www.w3.org/Graphics/SVG/1.1/DTD/svg11.dtd">
<!-- Generated by graphviz version 9.0.0 (20230911.1827)
 -->
<!-- Title: architecture Pages: 1 -->
<svg width="1217pt" height="161pt"
 viewBox="0.00 0.00 1216.73 161.00" xmlns="http://www.w3.org/2000/svg" xmlns:xlink="http://www.w3.org/1999/xlink">
<g id="graph0" class="graph" transform="scale(1 1) rotate(0) translate(4 157)">
<title>architecture</title>
<polygon fill="white" stroke="none" points="-4,4 -4,-157 1212.73,-157 1212.73,4 -4,4"/>
<g id="clust1" class="cluster">
<title>cluster_services</title>
<polygon fill="none" stroke="black" points="8,-8 8,-145 1200.73,-145 1200.73,-8 8,-8"/>
<text text-anchor="middle" x="604.36" y="-127.7" font-family="Times,serif" font-size="14.00">Services</text>
</g>
<!-- market_data -->
<g id="node1" class="node">
<title>market_data</title>
<ellipse fill="none" stroke="black" cx="130.73" cy="-62" rx="114.73" ry="19.45"/>
<text text-anchor="middle" x="130.73" y="-58.45" font-family="Times,serif" font-size="14.00">Market Data (Python)</text>
</g>
<!-- strategy -->
<g id="node2" class="node">
<title>strategy</title>
<ellipse fill="none" stroke="black" cx="455.95" cy="-35" rx="106.24" ry="19.45"/>
<text text-anchor="middle" x="455.95" y="-31.45" font-family="Times,serif" font-size="14.00">Strategy Engine (C#)</text>
</g>
<!-- market_data&#45;&gt;strategy -->
<g id="edge1" class="edge">
<title>market_data&#45;&gt;strategy</title>
<path fill="none" stroke="black" d="M234.44,-53.42C270.46,-50.41 311,-47.02 347.4,-43.98"/>
<polygon fill="black" stroke="black" points="347.37,-47.5 357.05,-43.18 346.79,-40.52 347.37,-47.5"/>
<text text-anchor="middle" x="297.58" y="-56.2" font-family="Times,serif" font-size="14.00">price ticks</text>
</g>
<!-- api -->
<g id="node3" class="node">
<title>api</title>
<ellipse fill="none" stroke="black" cx="809.67" cy="-76" rx="114.73" ry="19.45"/>
<text text-anchor="middle" x="809.67" y="-72.45" font-family="Times,serif" font-size="14.00">API Gateway (Python)</text>
</g>
<!-- market_data&#45;&gt;api -->
<g id="edge2" class="edge">
<title>market_data&#45;&gt;api</title>
<path fill="none" stroke="black" d="M231.3,-71.7C242.14,-72.57 253.03,-73.36 263.46,-74 446.94,-85.24 493.2,-89.57 676.94,-84 681.39,-83.87 685.92,-83.7 690.49,-83.52"/>
<polygon fill="black" stroke="black" points="690.58,-87.02 700.42,-83.1 690.28,-80.03 690.58,-87.02"/>
<text text-anchor="middle" x="455.95" y="-92.2" font-family="Times,serif" font-size="14.00">latest price</text>
</g>
<!-- strategy&#45;&gt;api -->
<g id="edge3" class="edge">
<title>strategy&#45;&gt;api</title>
<path fill="none" stroke="black" d="M546.61,-45.45C594.2,-51 652.98,-57.85 702.8,-63.66"/>
<polygon fill="black" stroke="black" points="702.1,-67.1 712.44,-64.78 702.91,-60.15 702.1,-67.1"/>
<text text-anchor="middle" x="628.57" y="-66.2" font-family="Times,serif" font-size="14.00">trades (future)</text>
</g>
<!-- web -->
<g id="node4" class="node">
<title>web</title>
<ellipse fill="none" stroke="black" cx="1114.06" cy="-76" rx="78.67" ry="19.45"/>
<text text-anchor="middle" x="1114.06" y="-72.45" font-family="Times,serif" font-size="14.00">Web Frontend</text>
</g>
<!-- api&#45;&gt;web -->
<g id="edge4" class="edge">
<title>api&#45;&gt;web</title>
<path fill="none" stroke="black" d="M924.56,-76C957.37,-76 992.67,-76 1023.75,-76"/>
<polygon fill="black" stroke="black" points="1023.49,-79.5 1033.49,-76 1023.49,-72.5 1023.49,-79.5"/>
<text text-anchor="middle" x="979.9" y="-82.2" font-family="Times,serif" font-size="14.00">REST /price</text>
</g>
</g>
</svg>
